Ostrich_Running_Kinematics
version=1
nRows=16
nColumns=28
inDegrees=no
endheader
time	/jointset/pelvis/pelvis_tilt/value	/jointset/pelvis/pelvis_list/value	/jointset/pelvis/pelvis_rotation/value	/jointset/pelvis/pelvis_tx/value	/jointset/pelvis/pelvis_ty/value	/jointset/pelvis/pelvis_tz/value	/jointset/R_hip/R_hip_extension/value	/jointset/R_hip/R_hip_abduction/value	/jointset/R_hip/R_hip_rotation/value	/jointset/knee/R_knee_angle/value	/jointset/knee/R_knee_varus/value	/jointset/knee/R_knee_rotation/value	/jointset/R_ankle/R_ankle_angle/value	/jointset/R_ankle/R_ankle_abduction/value	/jointset/R_ankle/R_ankle_rotation/value	/jointset/R_mtp/R_mtp_angle/value	/jointset/R_mtp/R_mtp_abduction/value	/jointset/R_mtp/R_mtp_rotation/value	/jointset/L_hip/L_hip_extension/value	/jointset/L_hip/L_hip_abduction/value	/jointset/L_hip/L_hip_rotation/value	/jointset/knee_0/L_knee_angle/value	/jointset/knee_0/L_knee_varus/value	/jointset/knee_0/L_knee_rotation/value	/jointset/L_ankle/L_ankle_angle/value	/jointset/L_ankle/L_ankle_abduction/value	/jointset/L_mtp/L_mtp_angle/value
      0.15300000	      0.22449472	     -0.06478662	     -0.02581761	      0.57512304	      1.05362449	     -0.86376310	      1.01265399	     -0.19239113	     -0.55565000	     -1.27132924	     -0.25299246	     -0.21454285	      0.85024762	      0.36049078	     -0.16284690	     -1.51739274	      0.09793706	      0.00176194	      0.92022136	     -0.21652206	     -0.42813276	     -1.87053917	     -0.32080548	     -0.33982608	      0.60470423	      0.12671055	     -1.78802001
      0.15700000	      0.22289600	     -0.06008820	     -0.02647036	      0.58967640	      1.05526297	     -0.86393498	      1.01671712	     -0.19715239	     -0.55209651	     -1.26287487	     -0.24865008	     -0.21256714	      0.81414025	      0.35769127	     -0.14831599	     -1.49144319	      0.11131256	      0.00259695	      0.92133837	     -0.21736680	     -0.42340640	     -1.88261685	     -0.31762898	     -0.34147367	      0.63137286	      0.12883287	     -1.83989119
      0.16100000	      0.22139851	     -0.05506863	     -0.02711788	      0.60424612	      1.05671353	     -0.86409438	      1.02081515	     -0.20207422	     -0.54816254	     -1.25526872	     -0.24431119	     -0.21057746	      0.77864374	      0.35414476	     -0.13420151	     -1.46590902	      0.12426535	      0.00340444	      0.92279048	     -0.21845239	     -0.41866609	     -1.89525303	     -0.31443154	     -0.34284201	      0.65876405	      0.13070771	     -1.89172747
      0.16500000	      0.22001621	     -0.04977679	     -0.02775597	      0.61882820	      1.05797161	     -0.86424070	      1.02489224	     -0.20710077	     -0.54386205	     -1.24846892	     -0.23998277	     -0.20856685	      0.74380697	      0.34988616	     -0.12056560	     -1.44080420	      0.13678145	      0.00418355	      0.92453581	     -0.21973695	     -0.41390483	     -1.90851754	     -0.31119221	     -0.34391713	      0.68685687	      0.13231341	     -1.94324959
      0.16900000	      0.21875957	     -0.04417777	     -0.02837591	      0.63341908	      1.05896617	     -0.86436806	      1.02887159	     -0.21221109	     -0.53911475	     -1.24266046	     -0.23568228	     -0.20657019	      0.70996154	      0.34476187	     -0.10768228	     -1.41634167	      0.14868739	      0.00492288	      0.92653247	     -0.22117510	     -0.40914357	     -1.92220092	     -0.30791099	     -0.34458734	      0.71582934	      0.13350582	     -1.99435283
      0.17300000	      0.21761812	     -0.03842168	     -0.02897491	      0.64801098	      1.05975967	     -0.86448030	      1.03272528	     -0.21731095	     -0.53409519	     -1.23756410	     -0.23138179	     -0.20458400	      0.67695388	      0.33904068	     -0.09543146	     -1.39240273	      0.16010848	      0.00563162	      0.92862337	     -0.22267609	     -0.40439279	     -1.93619846	     -0.30457741	     -0.34495385	      0.74540918	      0.13435056	     -2.04451359
      0.17700000	      0.21658489	     -0.03253643	     -0.02955087	      0.66260058	      1.06035079	     -0.86457686	      1.03643236	     -0.22238636	     -0.52883825	     -1.23315889	     -0.22710224	     -0.20261527	      0.64481887	      0.33277146	     -0.08384876	     -1.36902230	      0.17102935	      0.00630964	      0.93072475	     -0.22419801	     -0.39966644	     -1.95030072	     -0.30119845	     -0.34500971	      0.77556847	      0.13483157	     -2.09373188
      0.18100000	      0.21566335	     -0.02655344	     -0.03010169	      0.67718474	      1.06073863	     -0.86465720	      1.03997538	     -0.22741640	     -0.52336839	     -1.22942738	     -0.22286109	     -0.20067447	      0.61359493	      0.32600656	     -0.07296593	     -1.34623528	      0.18144443	      0.00695709	      0.93277726	     -0.22571296	     -0.39499244	     -1.96443789	     -0.29780204	     -0.34475140	      0.80627579	      0.13493629	     -2.14183315
      0.18500000	      0.21486748	     -0.02050762	     -0.03062529	      0.69176050	      1.06092271	     -0.86472080	      1.04334037	     -0.23237314	     -0.51769956	     -1.22635560	     -0.21867230	     -0.19877555	      0.58332394	      0.31880184	     -0.06281091	     -1.32407658	      0.19135790	      0.00757438	      0.93474599	     -0.22720696	     -0.39041270	     -1.97867977	     -0.29443704	     -0.34417893	      0.83749624	      0.13465564	     -2.18846835
      0.18900000	      0.21421124	     -0.01441991	     -0.03111119	      0.70632098	      1.06083607	     -0.86476160	      1.04645404	     -0.23720421	     -0.51187714	     -1.22419139	     -0.21459521	     -0.19690456	      0.55442129	      0.31108050	     -0.05366818	     -1.30282545	      0.20057324	      0.00815355	      0.93649132	     -0.22867304	     -0.38600051	     -1.99278203	     -0.29116979	     -0.34320154	      0.86931708	      0.13385977	     -2.23314878
      0.19300000	      0.21367019	     -0.00835315	     -0.03156672	      0.72086730	      1.06054819	     -0.86478440	      1.04937921	     -0.24190962	     -0.50601284	     -1.22269739	     -0.21064379	     -0.19507545	      0.52657631	      0.30304501	     -0.04530665	     -1.28223406	      0.20931734	      0.00870717	      0.93803768	     -0.23008676	     -0.38176634	     -2.00677957	     -0.28803867	     -0.34195189	      0.90153586	      0.13268691	     -2.27594425
      0.19700000	      0.21325131	     -0.00235619	     -0.03198909	      0.73539786	      1.06006075	     -0.86478876	      1.05212287	     -0.24648238	     -0.50014853	     -1.22189454	     -0.20685293	     -0.19327427	      0.49981692	      0.29475819	     -0.03773541	     -1.26229542	      0.21761812	      0.00923761	      0.93935017	     -0.23144811	     -0.37776604	     -2.02067239	     -0.28509953	     -0.34044392	      0.93412465	      0.13114474	     -2.31685477
      0.20100000	      0.21295460	      0.00353604	     -0.03237656	      0.74991106	      1.05937579	     -0.86477420	      1.05468501	     -0.25090853	     -0.49433659	     -1.22179680	     -0.20326104	     -0.19149054	      0.47417803	      0.28627239	     -0.03095970	     -1.24297113	      0.22552097	      0.00974773	      0.94040784	     -0.23275362	     -0.37405198	     -2.03439068	     -0.28239427	     -0.33869510	      0.96704854	      0.12924268	     -2.35581052
      0.20500000	      0.21277309	      0.00930260	     -0.03272841	      0.76440530	      1.05849571	     -0.86474020	      1.05705866	     -0.25516714	     -0.48863983	     -1.22241115	     -0.19991001	     -0.18971729	      0.44970154	      0.27762952	     -0.02498090	     -1.22419139	      0.23308872	      0.01024089	      0.94120371	     -0.23399629	     -0.37067303	     -2.04779481	     -0.27995081	     -0.33672637	      1.00026565	      0.12699190	     -2.39267187
      0.20900000	      0.21274516	      0.01483181	     -0.03302721	      0.77887018	      1.05735962	     -0.86467916	      1.05923683	     -0.25923026	     -0.48318044	     -1.22403082	     -0.19692201	     -0.18797196	      0.42677489	      0.26887495	     -0.02005348	     -1.20594223	      0.24029344	      0.01072079	      0.94166447	     -0.23515519	     -0.36782465	     -2.06105931	     -0.27794019	     -0.33456216	      1.03378993	      0.12430270	     -2.42688032
      0.21300000	      0.21284290	      0.02017252	     -0.03328517	      0.79330968	      1.05970086	     -0.86459718	      1.06129981	     -0.26313631	     -0.47796191	     -1.22644636	     -0.19427958	     -0.18621616	      0.40504205	      0.26009944	     -0.01589587	     -1.18792345	      0.24735155	      0.01119911	      0.94187391	     -0.23624079	     -0.36543704	     -2.07400966	     -0.27629609	     -0.33227229	      1.06749224	      0.12130876	     -2.45888966
